# xmcd
#
# Track frame offsets:
#	150
#	26200
#	58276
#	91859
#	123501
#	149039
#	179958
#	207827
#	240584
#	266380
#	297341
#
# Disc length: 4304 seconds
# Revision: 0
# Processed by: cddbd v1.5.2PL0 Copyright (c) Steve Scherf et al.
# Submitted via: dBpowerAMP V12.0
#
DISCID=b210ce0b
DTITLE=Model Jazz - 10 Ans Dèjà
DYEAR=2011
DGENRE=World
TTITLE0=Gad Yon Kwa
TTITLE1=Still La 
TTITLE2=10 Ans Dèjà
TTITLE3=Bal Grin-n
TTITLE4=Love Sa
TTITLE5=Jessica
TTITLE6=Sousou
TTITLE7=Hommage à DP Express
TTITLE8=Alo Fanatik
TTITLE9=Manman
TTITLE10=Tafiate
EXTD=
EXTT0=
EXTT1=
EXTT2=
EXTT3=
EXTT4=
EXTT5=
EXTT6=
EXTT7=
EXTT8=
EXTT9=
EXTT10=
PLAYORDER=
